<svg xmlns="http://www.w3.org/2000/svg" viewBox="0 0 256 256"><defs><style>.cls-1{fill:#252d43;}.cls-2{fill:#fff;}.cls-3{fill:#ea3c26;}</style></defs><g id="Content"><rect class="cls-1" width="256" height="256"/><path class="cls-2" d="M71.3,200.5A26.55,26.55,0,0,1,58,197.12,25.76,25.76,0,0,1,48.58,162,24.61,24.61,0,0,1,58,152.84a28.45,28.45,0,0,1,24-1.27,24.11,24.11,0,0,1,8.48,6.11l-8.68,8.69A11.29,11.29,0,0,0,77.3,163a15.24,15.24,0,0,0-5.9-1.11,12.78,12.78,0,0,0-6.52,1.66,11.75,11.75,0,0,0-4.49,4.6,14.94,14.94,0,0,0,0,13.53,12.13,12.13,0,0,0,4.49,4.64,12.43,12.43,0,0,0,6.52,1.72,14.62,14.62,0,0,0,5.95-1.16A13.76,13.76,0,0,0,82,183.54l8.48,8.58a24,24,0,0,1-8.43,6.21A26.21,26.21,0,0,1,71.3,200.5Z"/><path class="cls-2" d="M71.3,106.5A26.46,26.46,0,0,1,58,103.11,25.76,25.76,0,0,1,48.58,68,24.61,24.61,0,0,1,58,58.83,27,27,0,0,1,71.4,55.5,26.69,26.69,0,0,1,82,57.57a24,24,0,0,1,8.48,6.11L81.8,72.36A11.33,11.33,0,0,0,77.31,69a15.32,15.32,0,0,0-5.91-1.11,12.78,12.78,0,0,0-6.52,1.67,11.86,11.86,0,0,0-4.49,4.59,15,15,0,0,0,0,13.53,12.23,12.23,0,0,0,4.49,4.65,12.52,12.52,0,0,0,6.52,1.72,14.54,14.54,0,0,0,6-1.17A13.72,13.72,0,0,0,82,89.53l8.48,8.58a23.72,23.72,0,0,1-8.43,6.21A26.18,26.18,0,0,1,71.3,106.5Z"/><path class="cls-2" d="M210.86,71a27,27,0,0,0-38.16.5l-43,43.06-23.9-23.91L94.38,102l26.38,26.38L94.38,154.77l11.37,11.35,23.9-23.9,43,43.05a27,27,0,0,0,38.16.5l-57.39-57.38Zm-75.53,64.63a7.25,7.25,0,1,1,7.25-7.25A7.25,7.25,0,0,1,135.33,135.64Z"/><polygon class="cls-3" points="244 244 217 244 217 232.95 232.95 232.95 232.95 217 244 217 244 244"/><path class="cls-3" d="M204.72,244h-43V233h43Zm-55.24,0h-43V233h43Zm-55.24,0h-43V233h43Z"/><polygon class="cls-3" points="39.01 244 12 244 12 217 23.05 217 23.05 232.95 39.01 232.95 39.01 244"/><path class="cls-3" d="M23.05,204.72H12v-43H23.05Zm0-55.24H12v-43H23.05Zm0-55.24H12v-43H23.05Z"/><polygon class="cls-3" points="23.05 39.01 12 39.01 12 12 39.01 12 39.01 23.05 23.05 23.05 23.05 39.01"/><path class="cls-3" d="M204.72,23.05h-43V12h43Zm-55.24,0h-43V12h43Zm-55.24,0h-43V12h43Z"/><polygon class="cls-3" points="244 39.01 232.95 39.01 232.95 23.05 217 23.05 217 12 244 12 244 39.01"/><path class="cls-3" d="M244,204.72H233v-43H244Zm0-55.24H233v-43H244Zm0-55.24H233v-43H244Z"/></g></svg>